# Blender v3.2.1 OBJ File: 'SkyBox.blend'
# www.blender.org

mtllib SkyBox.mtl

o Cube
g Skybox

v 3.988660 -3.988659 -3.988660
v -3.988659 -3.988660 -3.988659
v 3.988661 -3.988659 3.988659
v -3.988658 -3.988660 3.988660
v 3.988658 3.988660 -3.988660
v -3.988661 3.988659 -3.988659
v 3.988659 3.988660 3.988659
v -3.988660 3.988659 3.988660

vt 0.997455 0.337201
vt 0.504484 0.334613
vt 0.504484 0.664416
vt 0.993577 0.663123
vt 0.003866 0.005611
vt 0.004666 0.331444
vt 0.495892 0.331444
vt 0.495892 0.004851
vt 0.506847 0.003881
vt 0.504908 0.330207
vt 0.993395 0.331501
vt 0.995334 0.005175
vt 0.006423 0.664416
vt 0.497455 0.665710
vt 0.497855 0.339521
vt 0.006423 0.337201
vt 0.506643 0.669266
vt 0.508582 0.995999
vt 0.991660 0.997293
vt 0.991660 0.671853
vt 0.497031 0.996766
vt 0.495092 0.671733
vt 0.004666 0.671733
vt 0.006605 0.996766

vn -1.0000 -0.0000 0.0000
vn -0.0000 -0.0000 -1.0000
vn 0.0000 -1.0000 -0.0000
vn 1.0000 0.0000 -0.0000
vn -0.0000 1.0000 -0.0000
vn 0.0000 0.0000 1.0000

usemtl Material

s off

f 1/1/1 3/2/1 7/3/1 5/4/1
f 4/5/2 8/6/2 7/7/2 3/8/2
f 8/9/3 6/10/3 5/11/3 7/12/3
f 6/13/4 8/14/4 4/15/4 2/16/4
f 2/17/5 4/18/5 3/19/5 1/20/5
f 6/21/6 2/22/6 1/23/6 5/24/6
